<svg xmlns="http://www.w3.org/2000/svg" viewBox="0 0 64 64"><defs><style>.cls-1{fill:#29abe2;}.cls-2{fill:#05001f;}.cls-3{font-size:40px;fill:#fff;font-family:Karla-Regular, Karla;}</style></defs><title>ID-swap-icon</title><g id="rotation-icon"><circle class="cls-1" cx="32" cy="32" r="32"/><path class="cls-2" d="M5,43a32.8,32.8,0,0,1,6.42-23.31,35.27,35.27,0,0,1,9.07-8.54A33.67,33.67,0,0,1,31.94,6.43l.48,1.77a41.12,41.12,0,0,0-10.34,5.31,40.12,40.12,0,0,0-8.36,7.94A40.61,40.61,0,0,0,7.94,31.5,46.37,46.37,0,0,0,5,43Z" transform="translate(0 0)"/><polygon class="cls-2" points="31.29 14.63 42 6 29.17 1.03 31.29 14.63"/><path class="cls-2" d="M59,22a28.26,28.26,0,0,1-1,11.78,31.74,31.74,0,0,1-5.63,10.63c-.67.76-1.32,1.54-2,2.28s-1.43,1.44-2.19,2.1-1.57,1.28-2.38,1.88-1.65,1.16-2.51,1.69-1.76,1-2.66,1.43-1.83.85-2.76,1.22L35,56c-1,.25-1.95.49-2.92.7l-.47-1.81c.89-.35,1.78-.67,2.67-1l2.58-1.16,2.5-1.3c.81-.47,1.59-1,2.38-1.47s1.53-1.08,2.3-1.61,1.43-1.19,2.15-1.78l2-1.92c.64-.67,1.25-1.38,1.88-2.06A37.11,37.11,0,0,0,56,33.07,41,41,0,0,0,59,22Z" transform="translate(0 0)"/><polygon class="cls-2" points="32.78 48.45 22 57 34.79 62.07 32.78 48.45"/><text class="cls-3" transform="translate(16.41 43.99)">ID</text></g></svg>