<svg id="unlock-icon" xmlns="http://www.w3.org/2000/svg" viewBox="0 0 64 64"><defs><style>.cls-1{fill:#c1272d;}.cls-2{fill:#8a272d;}.cls-3{fill:none;stroke:#fff;stroke-miterlimit:10;stroke-width:4px;}.cls-4{fill:#fff;}</style></defs><title>unlock-icon</title><circle class="cls-1" cx="32" cy="32" r="32"/><path class="cls-2" d="M64,32A32,32,0,0,1,32,64a31.66,31.66,0,0,1-12.3-2.46L12.89,55.3l-.42-.79,0-1,21.21-.9-3.37-4,.39-.64,0-8,1.78-4.82,2.88-.38L51.08,50.54,50.7,28.71l-33.62-1-.15-10.95L21,8.86,36.44,4.94l4.13,1.75,4.06.36L63.5,26.4A32.31,32.31,0,0,1,64,32Z"/><rect class="cls-3" x="13" y="28.31" width="39" height="25.53" rx="2"/><path class="cls-3" d="M16.47,17.74c0-6.8,7.18-12.32,16-12.32s16,5.52,16,12.32"/><polygon class="cls-4" points="18.48 17 18.45 26.56 14.47 26.61 14.47 17 18.48 17"/><polygon class="cls-4" points="19 26.57 19 29.19 14 29.19 14 26.62 14.47 26.61 18.45 26.57 19 26.57"/><rect class="cls-4" x="30.33" y="38.87" width="5.2" height="9.68"/><ellipse class="cls-4" cx="32.93" cy="37.55" rx="3.47" ry="3.96"/></svg>